<?xml version="1.0" encoding="UTF-8" standalone="no"?>
<!-- Created with Inkscape (http://www.inkscape.org/) -->

<svg
   xmlns:dc="http://purl.org/dc/elements/1.1/"
   xmlns:cc="http://creativecommons.org/ns#"
   xmlns:rdf="http://www.w3.org/1999/02/22-rdf-syntax-ns#"
   xmlns:svg="http://www.w3.org/2000/svg"
   xmlns="http://www.w3.org/2000/svg"
   xmlns:sodipodi="http://sodipodi.sourceforge.net/DTD/sodipodi-0.dtd"
   xmlns:inkscape="http://www.inkscape.org/namespaces/inkscape"
   width="285.5"
   height="78.304192"
   viewBox="0 0 75.538543 20.717984"
   version="1.1"
   id="svg8"
   inkscape:version="0.92.0 r15299"
   sodipodi:docname="hikma.svg">
  <defs
     id="defs2">
	
	
	
	
	
	
	
</defs>
  <sodipodi:namedview
     id="base"
     pagecolor="#ffffff"
     bordercolor="#666666"
     borderopacity="1.0"
     inkscape:pageopacity="0.0"
     inkscape:pageshadow="2"
     inkscape:zoom="3.1640212"
     inkscape:cx="141.75"
     inkscape:cy="38.152106"
     inkscape:document-units="mm"
     inkscape:current-layer="layer1"
     showgrid="false"
     fit-margin-top="0"
     fit-margin-left="0"
     fit-margin-right="0"
     fit-margin-bottom="0"
     units="px"
     inkscape:window-width="1280"
     inkscape:window-height="744"
     inkscape:window-x="-4"
     inkscape:window-y="-4"
     inkscape:window-maximized="1" />
  <metadata
     id="metadata5">
    <rdf:RDF>
      <cc:Work
         rdf:about="">
        <dc:format>image/svg+xml</dc:format>
        <dc:type
           rdf:resource="http://purl.org/dc/dcmitype/StillImage" />
        <dc:title></dc:title>
      </cc:Work>
    </rdf:RDF>
  </metadata>
  <g
     inkscape:label="Layer 1"
     inkscape:groupmode="layer"
     id="layer1"
     transform="translate(94.201116,-329.46572)">
    <g
       id="g49"
       transform="translate(0.26458383,-0.26457543)">
      <path
         d="m -86.448824,336.00092 c -1.375834,0 -2.487084,0.44979 -3.280834,1.29646 v -7.3025 h -4.471458 v 19.84375 h 4.471458 v -7.35542 c 0,-0.76729 0.185209,-1.37583 0.555625,-1.79916 0.343959,-0.42334 0.820209,-0.635 1.42875,-0.635 1.190625,0 1.74625,0.68791 1.74625,2.14312 v 7.67292 h 4.471459 v -8.62542 c 0,-1.69333 -0.47625,-2.98979 -1.42875,-3.88937 -0.978959,-0.89959 -2.143125,-1.34938 -3.4925,-1.34938"
         class="logo-char"
         id="letter-h"
         inkscape:connector-curvature="0"
         style="fill:#ff5c57;fill-opacity:1;stroke-width:0.26458332" />
      <rect
         height="13.043958"
         width="4.3127079"
         y="336.79468"
         x="-79.675491"
         class="logo-char"
         id="letter-i"
         style="fill:#ff5c57;fill-opacity:1;stroke-width:0.26458332" />
      <path
         d="m -75.071741,332.61425 c 0,1.34938 -1.084792,2.46063 -2.460625,2.46063 -1.349375,0 -2.460625,-1.08479 -2.460625,-2.46063 0,-1.34937 1.084791,-2.46062 2.460625,-2.46062 1.375833,0 2.460625,1.11125 2.460625,2.46062"
         class="logo-char"
         id="letter-i-dot"
         inkscape:connector-curvature="0"
         style="fill:#ff5c57;fill-opacity:1;stroke-width:0.26458332" />
      <polyline
         transform="matrix(0.26458333,0,0,0.26458333,-94.201116,329.99488)"
         points="126.5,25.7 107.2,25.7 95.2,41.7 95.2,2.3 78.9,2.3 78.9,75 95.2,75 95.2,57.6 107,75   127.6,75 107.4,49.3 126.5,25.7  "
         class="logo-char"
         id="letter-k"
         style="fill:#ff5c57;fill-opacity:1" />
      <path
         d="m -42.025283,337.69425 c -0.926042,-0.84666 -2.037292,-1.29645 -3.307292,-1.29645 -0.820208,0 -1.5875,0.1852 -2.2225,0.55562 -0.555625,0.29104 -0.978958,0.71438 -1.296458,1.21708 -0.343959,-0.5027 -0.79375,-0.92604 -1.349375,-1.21708 -0.661459,-0.37042 -1.375834,-0.55562 -2.143125,-0.55562 -1.322917,0 -2.407708,0.44979 -3.201458,1.37583 v -1.00542 h -4.048125 v 13.07042 h 4.312708 v -7.17021 c 0,-0.76729 0.15875,-1.34937 0.449792,-1.71979 0.291041,-0.37042 0.687916,-0.55563 1.190624,-0.55563 1.27,0 1.402292,1.11125 1.402292,1.93146 v 7.51417 h 4.312708 v -7.3025 c 0,-0.68792 0.15875,-1.24354 0.449792,-1.61396 0.291042,-0.37042 0.661458,-0.55562 1.190625,-0.55562 1.243542,0 1.375833,1.11125 1.375833,1.93145 v 7.54063 h 4.312709 v -8.36083 c -0.02646,-1.64042 -0.502709,-2.91042 -1.42875,-3.78355"
         class="logo-char"
         id="letter-m"
         inkscape:connector-curvature="0"
         style="fill:#ff5c57;fill-opacity:1;stroke-width:0.26458332" />
      <path
         d="m -29.6957,348.91259 v 0.97896 h 4.233333 v -13.22917 h -4.497916 v 0.82021 c -0.79375,-0.71438 -1.905,-1.05834 -3.175,-1.05834 -1.74625,0 -3.175,0.66146 -4.312709,1.93146 -1.11125,1.27 -1.666875,2.93688 -1.666875,4.94771 0,2.03729 0.582084,3.70417 1.693334,4.97417 1.11125,1.27 2.54,1.905 4.312708,1.905 1.349375,0.0265 2.619375,-0.42334 3.413125,-1.27 z m -4.312708,-3.22792 c -0.502709,-0.60854 -0.740834,-1.40229 -0.740834,-2.38125 0,-0.9525 0.238125,-1.71979 0.740834,-2.30187 0.47625,-0.58209 1.084791,-0.87313 1.825625,-0.87313 0.767291,0 1.375833,0.29104 1.852083,0.87313 0.502708,0.58208 0.740833,1.34937 0.740833,2.30187 0,0.97896 -0.238125,1.77271 -0.740833,2.38125 -0.47625,0.58208 -1.084792,0.87313 -1.852083,0.87313 -0.740834,0 -1.322917,-0.26459 -1.825625,-0.87313 z"
         class="logo-char"
         id="letter-a"
         inkscape:connector-curvature="0"
         style="fill:#ff5c57;fill-opacity:1;stroke-width:0.26458332" />
      <path
         d="m -19.191742,347.72196 c 0,1.34938 -1.084792,2.46063 -2.460625,2.46063 -1.349375,0 -2.460625,-1.08479 -2.460625,-2.46063 0,-1.34937 1.084792,-2.46062 2.460625,-2.46062 1.349375,0.0265 2.460625,1.11125 2.460625,2.46062"
         class="logo-char"
         id="full-stop"
         inkscape:connector-curvature="0"
         style="fill:#ff5c57;fill-opacity:1;stroke-width:0.26458332" />
    </g>
  </g>
</svg>
