<?xml version="1.0" encoding="UTF-8" standalone="no"?>
<!-- Generator: Adobe Illustrator 28.0.0, SVG Export Plug-In . SVG Version: 6.00 Build 0)  -->

<svg
   version="1.1"
   x="0px"
   y="0px"
   viewBox="0 0 378.70657 600"
   xml:space="preserve"
   id="svg17"
   sodipodi:docname="Mobily.svg"
   width="378.70657"
   height="600"
   inkscape:version="1.3.2 (091e20e, 2023-11-25, custom)"
   xmlns:inkscape="http://www.inkscape.org/namespaces/inkscape"
   xmlns:sodipodi="http://sodipodi.sourceforge.net/DTD/sodipodi-0.dtd"
   xmlns="http://www.w3.org/2000/svg"
   xmlns:svg="http://www.w3.org/2000/svg"><defs
   id="defs17" /><sodipodi:namedview
   id="namedview17"
   pagecolor="#ffffff"
   bordercolor="#999999"
   borderopacity="1"
   inkscape:showpageshadow="2"
   inkscape:pageopacity="0"
   inkscape:pagecheckerboard="0"
   inkscape:deskcolor="#d1d1d1"
   inkscape:zoom="0.674"
   inkscape:cx="201.78042"
   inkscape:cy="320.47478"
   inkscape:window-width="1500"
   inkscape:window-height="912"
   inkscape:window-x="-8"
   inkscape:window-y="-8"
   inkscape:window-maximized="1"
   inkscape:current-layer="svg17" />
<style
   type="text/css"
   id="style1">
	.st0{display:none;}
	.st1{display:inline;}
	.st2{fill:#F7F9FC;}
	.st3{fill:#49A17B;}
	.st4{fill:#7631CD;}
	.st5{fill:#404041;}
	.st6{fill:#510C76;}
	.st7{fill:#15345B;}
	.st8{fill:#120F11;}
	.st9{fill:#6D809B;}
	.st10{fill:#B52025;}
	.st11{fill:#FFFFFF;}
	.st12{fill:#CF2329;}
	.st13{fill:#1D3B60;}
	.st14{opacity:0.6;}
	.st15{clip-path:url(#SVGID_00000158006305986025547890000003807205755198107033_);}
	.st16{clip-path:url(#SVGID_00000006701956586125032340000005325623078548393390_);fill:#5293C9;}
	
		.st17{clip-path:url(#SVGID_00000153678563152218061740000009426234781895763857_);fill:url(#SVGID_00000058575428839737338050000007513005181950150056_);}
	.st18{clip-path:url(#SVGID_00000020367395571078460460000000086731194932024199_);fill:#1D3B60;}
	
		.st19{clip-path:url(#SVGID_00000052806559499999487910000017032203186189753255_);fill:url(#SVGID_00000001661928519904726370000010762813824618682527_);}
	.st20{clip-path:url(#SVGID_00000114066939832225218000000000386500711059633809_);fill:#2D6683;}
	
		.st21{clip-path:url(#SVGID_00000109748492905389128780000000757673795169177006_);fill:url(#SVGID_00000068647127319535356830000003390637730965140381_);}
	.st22{clip-path:url(#SVGID_00000108293071023992412460000007426685076397590701_);fill:#7BADC5;}
	
		.st23{clip-path:url(#SVGID_00000048477958539989139990000001111538497094843819_);fill:url(#SVGID_00000155852695504095675370000012304671458876593069_);}
	.st24{opacity:0.3;}
	.st25{clip-path:url(#SVGID_00000124858238750019309050000012563879516116919184_);}
	.st26{clip-path:url(#SVGID_00000108299566699934232890000015553404835860303533_);fill:#5293C9;}
	
		.st27{clip-path:url(#SVGID_00000059291961905732263330000010106561848453268621_);fill:url(#SVGID_00000129897866535103466660000007565775239339818407_);}
	.st28{clip-path:url(#SVGID_00000040544262466982525710000011646183716170419350_);fill:#1D3B60;}
	
		.st29{clip-path:url(#SVGID_00000170263435899024810440000008477326585355837596_);fill:url(#SVGID_00000060027576029471923340000004483828464881356442_);}
	.st30{clip-path:url(#SVGID_00000072252424986500449600000015725182155110832567_);fill:#2D6683;}
	
		.st31{clip-path:url(#SVGID_00000160165871521885217330000013200974707680370846_);fill:url(#SVGID_00000064335171430803531370000014524093387832938648_);}
	.st32{clip-path:url(#SVGID_00000132089885088186469230000013438885616041619842_);fill:#7BADC5;}
	
		.st33{clip-path:url(#SVGID_00000090258468198243715730000007231654387169473433_);fill:url(#SVGID_00000157994329766448917280000007536170487821795472_);}
	.st34{opacity:0.1;}
	.st35{clip-path:url(#SVGID_00000119116053437372329460000005202808506457772685_);}
	.st36{clip-path:url(#SVGID_00000123416299808711779140000008937920445641027723_);fill:#5293C9;}
	
		.st37{clip-path:url(#SVGID_00000008128639604523501530000005172483999532377496_);fill:url(#SVGID_00000141422319341939375010000010707925378999244431_);}
	.st38{clip-path:url(#SVGID_00000177466364979456208440000010348095980908231074_);fill:#1D3B60;}
	
		.st39{clip-path:url(#SVGID_00000119804673161481291640000006665640443261876373_);fill:url(#SVGID_00000002367651816336805420000001366138992892967871_);}
	.st40{clip-path:url(#SVGID_00000141416709302270655150000009321557832895807414_);fill:#2D6683;}
	
		.st41{clip-path:url(#SVGID_00000101820415800254273130000006852384396788965525_);fill:url(#SVGID_00000016068735059093011990000015965498926007279500_);}
	.st42{clip-path:url(#SVGID_00000089544090019311105610000010256450094045500816_);fill:#7BADC5;}
	
		.st43{clip-path:url(#SVGID_00000000224200297763827370000011011398603944317346_);fill:url(#SVGID_00000121958628255126175990000015732120388832770953_);}
	.st44{fill:#5293C9;}
	.st45{fill:#2D6683;}
	.st46{fill:#7BADC5;}
	.st47{fill:#CE1D5E;}
	.st48{fill:#CE0E2D;}
	.st49{fill:#F1F1F1;}
	.st50{fill:#010101;}
	.st51{fill:#CD9967;}
	.st52{fill:#BB8D5C;}
	.st53{fill:#AE807A;}
	.st54{fill:#AC8079;}
	.st55{fill:#262626;}
	.st56{fill:#80B041;}
	.st57{fill:#1985C1;}
	.st58{fill:#293678;}
	.st59{fill:#1EBBB9;}
	.st60{fill:#333333;}
	.st61{fill:#76519B;}
	.st62{fill:#5F9E81;}
	.st63{fill:#439778;}
	.st64{fill:#304043;}
	.st65{fill:#3F8E8B;}
	.st66{fill:#808081;}
	.st67{fill:none;stroke:#808081;stroke-width:0.3838;stroke-miterlimit:10;}
	.st68{fill:#221F20;}
	.st69{fill:#3B8569;}
	.st70{fill:#5F6163;}
	.st71{fill:#A6A8AB;}
	.st72{fill:#8B8072;}
	.st73{fill:#22516F;}
	
		.st74{clip-path:url(#SVGID_00000054254903249965979410000015424279775610950568_);fill:url(#SVGID_00000039097353322216672450000000846153370723517586_);}
	
		.st75{clip-path:url(#SVGID_00000070077119310220485650000015780235541850621070_);fill:url(#SVGID_00000121245882626520635900000004393491997922657159_);}
	.st76{fill:#76777A;}
	.st77{fill:#51B187;}
	
		.st78{clip-path:url(#SVGID_00000110451245438193352980000017151306673643775364_);fill:url(#SVGID_00000090259237794044521620000014972986356602579618_);}
	
		.st79{clip-path:url(#SVGID_00000091011831077041217140000008349380741834667914_);fill:url(#SVGID_00000177473163886604215070000016245231454401404334_);}
	
		.st80{clip-path:url(#SVGID_00000084528651553586244060000003279753336549460658_);fill:url(#SVGID_00000145767839994616738650000012249566442384560039_);}
	
		.st81{clip-path:url(#SVGID_00000034798094208376716040000013983231572486279843_);fill:url(#SVGID_00000127726762893613491850000010057783788229208493_);}
	
		.st82{clip-path:url(#SVGID_00000183211266968869698080000010926886333775903396_);fill:url(#SVGID_00000144309222440505616970000001642209566877257914_);}
	
		.st83{clip-path:url(#SVGID_00000123430063268173816380000012004589602265591436_);fill:url(#SVGID_00000023269561005414568510000016618971613407267719_);}
	
		.st84{clip-path:url(#SVGID_00000170969329951702025590000000117551838327214488_);fill:url(#SVGID_00000034768580657213433730000017276175957514102411_);}
	
		.st85{clip-path:url(#SVGID_00000111168650412996440300000013381017673717402523_);fill:url(#SVGID_00000170967252927932488930000004926786198663772090_);}
	
		.st86{clip-path:url(#SVGID_00000003784467636947251380000013798652135342325938_);fill:url(#SVGID_00000050648878814002677880000000975997797868282792_);}
	
		.st87{clip-path:url(#SVGID_00000123441279778580280190000003371390787906173314_);fill:url(#SVGID_00000183971738931149775130000013707192311156378503_);}
	
		.st88{clip-path:url(#SVGID_00000168839841745857631730000013221267518801442189_);fill:url(#SVGID_00000169515579362397087850000001687270829620593547_);}
	
		.st89{clip-path:url(#SVGID_00000096025554287401953390000005474952542089487802_);fill:url(#SVGID_00000159444713979062243850000011270589363745224636_);}
	
		.st90{clip-path:url(#SVGID_00000157999293462966512300000007522567803075031479_);fill:url(#SVGID_00000044151602152196051980000014218968171931918211_);}
	
		.st91{clip-path:url(#SVGID_00000096746454246791159360000009556243264431428490_);fill:url(#SVGID_00000016768583702191591680000011732979763226115968_);}
	
		.st92{clip-path:url(#SVGID_00000081621432012129746110000000391995538022405297_);fill:url(#SVGID_00000114782643086028363370000018403912305333854610_);}
	
		.st93{clip-path:url(#SVGID_00000066477104269913695530000000918856957560101041_);fill:url(#SVGID_00000160171334193611859290000018223974979314830252_);}
	
		.st94{clip-path:url(#SVGID_00000096753208422255503880000009958412439793297803_);fill:url(#SVGID_00000124879836713920298430000009131452327743567806_);}
	
		.st95{clip-path:url(#SVGID_00000145027417964769592590000002592845380464357551_);fill:url(#SVGID_00000173873527503387452850000014614154880118513811_);}
	
		.st96{clip-path:url(#SVGID_00000088838286929116136870000016645317828204923804_);fill:url(#SVGID_00000000214276652528519930000009537600466245493142_);}
	
		.st97{clip-path:url(#SVGID_00000159442718337787563680000018258182010737802396_);fill:url(#SVGID_00000049205549422269495350000015389207223370508702_);}
	
		.st98{clip-path:url(#SVGID_00000175317773488549405030000009699709549203604380_);fill:url(#SVGID_00000062164596021300268130000015220869952782221475_);}
	
		.st99{clip-path:url(#SVGID_00000010284360557764506280000017365470386536683942_);fill:url(#SVGID_00000042696899528099670700000018155707538338736556_);}
	
		.st100{clip-path:url(#SVGID_00000080188799987693751350000011676422147766745000_);fill:url(#SVGID_00000106121968783356404550000017690799895050165638_);}
	
		.st101{clip-path:url(#SVGID_00000030480469929512941870000002071555562870773695_);fill:url(#SVGID_00000172422075173457139900000006468619420836278205_);}
	
		.st102{clip-path:url(#SVGID_00000082330025419156618360000006363411321256420252_);fill:url(#SVGID_00000129914773242841206360000009283660587016409244_);}
	
		.st103{clip-path:url(#SVGID_00000104697152318374615120000012092316039953735356_);fill:url(#SVGID_00000144299820648459078130000009558860961889271435_);}
	
		.st104{clip-path:url(#SVGID_00000010280141113058812650000000305411135898845611_);fill:url(#SVGID_00000127018598389669445440000004589812352935959942_);}
	
		.st105{clip-path:url(#SVGID_00000118376017965972887260000012099478558041997207_);fill:url(#SVGID_00000150102394898141030230000011171390530769957531_);}
	
		.st106{clip-path:url(#SVGID_00000108289605940697131030000013592707421452875397_);fill:url(#SVGID_00000006677849507100600720000015732949774004680092_);}
	
		.st107{clip-path:url(#SVGID_00000170977062615080679870000010706126691085797507_);fill:url(#SVGID_00000088816067332459333900000010484448982560033699_);}
	
		.st108{clip-path:url(#SVGID_00000023258477545671051560000000404244017831537045_);fill:url(#SVGID_00000169557246223155969400000012609706685891582877_);}
	
		.st109{clip-path:url(#SVGID_00000129885541628669369900000009697595026714507144_);fill:url(#SVGID_00000119818453640283889140000008250524259787977638_);}
	
		.st110{clip-path:url(#SVGID_00000088829403661499389810000014311132602410274981_);fill:url(#SVGID_00000031206111707180455360000001580192508665703329_);}
	
		.st111{clip-path:url(#SVGID_00000035505569868879029700000009499095373015641494_);fill:url(#SVGID_00000049941291026939509320000014328655693542799251_);}
	
		.st112{clip-path:url(#SVGID_00000004519803394631029810000011898298157881126055_);fill:url(#SVGID_00000142860369055857591760000016399216870572014769_);}
	
		.st113{clip-path:url(#SVGID_00000083776474028473657840000010830342583320601012_);fill:url(#SVGID_00000122689973657372084740000000806394235539485874_);}
	
		.st114{clip-path:url(#SVGID_00000074432858799081923510000017495526557444510593_);fill:url(#SVGID_00000078742114943142502350000000783810723574555574_);}
	
		.st115{clip-path:url(#SVGID_00000142861451948272588100000003715283917849193099_);fill:url(#SVGID_00000101789022035338533820000002275506945769105335_);}
	
		.st116{clip-path:url(#SVGID_00000028307577053816998800000008823347740473722802_);fill:url(#SVGID_00000014604678589834386240000009395111382767835557_);}
	
		.st117{clip-path:url(#SVGID_00000098182986015278158020000015179819530590259074_);fill:url(#SVGID_00000058566354108306870260000015421421160473825723_);}
	
		.st118{clip-path:url(#SVGID_00000021082183810621251890000012378115788265696169_);fill:url(#SVGID_00000075873570690143386060000011695181986063667880_);}
	
		.st119{clip-path:url(#SVGID_00000166673682608061436030000009243758096495205029_);fill:url(#SVGID_00000075150866118893169750000007147451394167523766_);}
	
		.st120{clip-path:url(#SVGID_00000001640521330167428780000000091036157859631012_);fill:url(#SVGID_00000007395806314455887500000015091000442383952780_);}
	
		.st121{clip-path:url(#SVGID_00000016054418816606921270000009958002900516638608_);fill:url(#SVGID_00000095332190257355817830000002327550666942371492_);}
	
		.st122{clip-path:url(#SVGID_00000022539188229918886200000007203842504035684507_);fill:url(#SVGID_00000013161516558970593990000007848158617293611664_);}
	
		.st123{clip-path:url(#SVGID_00000121244672163216606610000000275168172907378315_);fill:url(#SVGID_00000024685354571674985280000010201176982510160519_);}
	
		.st124{clip-path:url(#SVGID_00000041995086661829116940000017284613691458971323_);fill:url(#SVGID_00000041997180887694512190000012688940423103916474_);}
	
		.st125{clip-path:url(#SVGID_00000084516985766684668970000005753643146276286857_);fill:url(#SVGID_00000042724715996161283300000003658249843916751752_);}
	
		.st126{clip-path:url(#SVGID_00000090264540984543779330000003357549563912112551_);fill:url(#SVGID_00000089562778462815787320000003094186918300061884_);}
	
		.st127{clip-path:url(#SVGID_00000168835428191553321860000014592518463691441554_);fill:url(#SVGID_00000026134112047622967760000005472153991506085284_);}
	
		.st128{clip-path:url(#SVGID_00000042714061361622428620000005534935854876946111_);fill:url(#SVGID_00000062189295547087381430000010250415633619419033_);}
	
		.st129{clip-path:url(#SVGID_00000131364816315882875190000004159008804489122970_);fill:url(#SVGID_00000116933526530788941240000004477600282948887988_);}
	
		.st130{clip-path:url(#SVGID_00000173151907896159320670000016367227819767507597_);fill:url(#SVGID_00000035521467094154402430000015862131664925262225_);}
	
		.st131{clip-path:url(#SVGID_00000178181039611561716270000016409112370148274335_);fill:url(#SVGID_00000135662392341914852890000001738499599523291065_);}
	.st132{fill:#1B685C;}
	.st133{fill:#646B70;}
	
		.st134{clip-path:url(#SVGID_00000183930676493968776230000003300665397471240098_);fill:url(#SVGID_00000089539806080972336560000001923420404439021241_);}
	
		.st135{clip-path:url(#SVGID_00000088094494116009196740000002395876237595094421_);fill:url(#SVGID_00000031182048703919372920000011404302291004431007_);}
	
		.st136{clip-path:url(#SVGID_00000094598352478289431310000015867789998278916796_);fill:url(#SVGID_00000150065907380137547760000018175560818744092595_);}
	
		.st137{clip-path:url(#SVGID_00000062894194229474861480000009973161603477512630_);fill:url(#SVGID_00000163784584802565000140000017374585622922316706_);}
	
		.st138{clip-path:url(#SVGID_00000166672408167093527210000002503918691407212696_);fill:url(#SVGID_00000058591790007261458290000013134033836884722568_);}
	
		.st139{clip-path:url(#SVGID_00000137826286407255433240000014340250698574008763_);fill:url(#SVGID_00000026850546760750507610000003752401558326378921_);}
	
		.st140{clip-path:url(#SVGID_00000111193005266188139420000006352200041446935178_);fill:url(#SVGID_00000090266168510025744580000010403843008208829366_);}
	
		.st141{clip-path:url(#SVGID_00000006690844467229089070000009508748020473384612_);fill:url(#SVGID_00000026872774863476461450000012119976023911744645_);}
	
		.st142{clip-path:url(#SVGID_00000141451477125461302970000003707527142114228129_);fill:url(#SVGID_00000057829342444599178730000014909415485531704730_);}
	
		.st143{clip-path:url(#SVGID_00000031929032837319027320000005354219343715616940_);fill:url(#SVGID_00000084515921085499446170000016950243987879345068_);}
	
		.st144{clip-path:url(#SVGID_00000009582691838994752630000013253274499782813589_);fill:url(#SVGID_00000083052554454628822020000011568949829505923238_);}
	
		.st145{clip-path:url(#SVGID_00000030483101502840897500000000308616657698862760_);fill:url(#SVGID_00000062193857884098575170000008112208993008586904_);}
	
		.st146{clip-path:url(#SVGID_00000119101596483796021670000004493313739347906224_);fill:url(#SVGID_00000050644357247371436920000015459579077646357656_);}
	
		.st147{clip-path:url(#SVGID_00000015320018519919477270000004048744523248939167_);fill:url(#SVGID_00000037661214005337084820000001231150735562797722_);}
	
		.st148{clip-path:url(#SVGID_00000122708684420688721570000014840860440365873302_);fill:url(#SVGID_00000092421034744460209270000013677349287772651924_);}
	
		.st149{clip-path:url(#SVGID_00000142897270475088720280000014276456186635703980_);fill:url(#SVGID_00000103980647787766078740000003690055521973430461_);}
	
		.st150{clip-path:url(#SVGID_00000178194701404022226650000000139271038550215829_);fill:url(#SVGID_00000154417408278516743990000008675365245282250674_);}
	
		.st151{clip-path:url(#SVGID_00000138538847376041947160000009189504257937077643_);fill:url(#SVGID_00000091703285499216167150000014235932459120932024_);}
	
		.st152{clip-path:url(#SVGID_00000043451857297309901580000017986146203889073564_);fill:url(#SVGID_00000181061104543138146400000000035385686178234799_);}
	
		.st153{clip-path:url(#SVGID_00000101820657546778322090000001525013335344572045_);fill:url(#SVGID_00000083056870646376147010000014916263656326914721_);}
	
		.st154{clip-path:url(#SVGID_00000162349106296067933390000000430149742781673633_);fill:url(#SVGID_00000133503146208482746070000003042453572577991568_);}
	
		.st155{clip-path:url(#SVGID_00000114049058337583730650000015352965520981041537_);fill:url(#SVGID_00000102541408863935408680000005609478211325885868_);}
	
		.st156{clip-path:url(#SVGID_00000069391389949555824620000003043053352633077687_);fill:url(#SVGID_00000080204225596942728880000011168632859733564566_);}
	
		.st157{clip-path:url(#SVGID_00000086689485432448043880000012302175023036119710_);fill:url(#SVGID_00000033341454631924105110000016048569249771011487_);}
	
		.st158{clip-path:url(#SVGID_00000137833263077745266600000006588513741875007623_);fill:url(#SVGID_00000047020932350497053870000009817010089686423426_);}
	
		.st159{clip-path:url(#SVGID_00000070841016055686331700000011984187992181248420_);fill:url(#SVGID_00000120519112412539547470000010758608898190060219_);}
	
		.st160{clip-path:url(#SVGID_00000098911799612977170360000008409660805934865061_);fill:url(#SVGID_00000111891203513616207520000017173965792406754727_);}
	
		.st161{clip-path:url(#SVGID_00000006681676823705024670000007309174221141759640_);fill:url(#SVGID_00000015328894985907110160000001658673143029565117_);}
	
		.st162{clip-path:url(#SVGID_00000090992393113027018680000013108545060210559127_);fill:url(#SVGID_00000080206959837732530680000010429486058683545251_);}
	
		.st163{clip-path:url(#SVGID_00000047782660349813940270000009109823779213332628_);fill:url(#SVGID_00000034783142684746756760000003764781306700539071_);}
	
		.st164{clip-path:url(#SVGID_00000119107323976227336890000007492503670403482258_);fill:url(#SVGID_00000016758151260760879250000017994292874554981012_);}
	
		.st165{clip-path:url(#SVGID_00000128463210379747688700000012981909866747518081_);fill:url(#SVGID_00000149340843147210196530000009060987735555272849_);}
	
		.st166{clip-path:url(#SVGID_00000097470182529045875550000002862535492277082296_);fill:url(#SVGID_00000181077583372638234950000012367268834762275239_);}
	
		.st167{clip-path:url(#SVGID_00000135686752839710289260000015079752985018700417_);fill:url(#SVGID_00000091735286294435122250000012802502858428848795_);}
	
		.st168{clip-path:url(#SVGID_00000032631231010912108880000000780214091512466608_);fill:url(#SVGID_00000150067990766858406010000009216434227527676842_);}
	
		.st169{clip-path:url(#SVGID_00000139278215047990917180000015183150415438443671_);fill:url(#SVGID_00000147191317223151153890000015912422226944251814_);}
	
		.st170{clip-path:url(#SVGID_00000121963660831155387050000008068887733698243735_);fill:url(#SVGID_00000157265950759183820200000005749486830766312620_);}
	
		.st171{clip-path:url(#SVGID_00000178178924147475600890000005157653633526768012_);fill:url(#SVGID_00000067220461172495293720000017746987480081134239_);}
	
		.st172{clip-path:url(#SVGID_00000031915870128246232370000011565200528788438410_);fill:url(#SVGID_00000050641646362352793310000008131917367629608850_);}
	
		.st173{clip-path:url(#SVGID_00000110468185458435871650000012167351856569946300_);fill:url(#SVGID_00000182522918474063544060000002339420318580292276_);}
	
		.st174{clip-path:url(#SVGID_00000117659676405779128610000017550421452027424693_);fill:url(#SVGID_00000183210993537042086210000008334693837193851540_);}
	
		.st175{clip-path:url(#SVGID_00000005960611117026276650000017980390682765209018_);fill:url(#SVGID_00000109017371758879897810000010019945567832571829_);}
	
		.st176{clip-path:url(#SVGID_00000031183658557665860490000000707696979786413729_);fill:url(#SVGID_00000018196814088788880390000014399990516959223702_);}
	
		.st177{clip-path:url(#SVGID_00000098909852380338879170000004513631495063579531_);fill:url(#SVGID_00000103247902233937873570000008880858880304321187_);}
	
		.st178{clip-path:url(#SVGID_00000057841344260358106410000006424809410638165691_);fill:url(#SVGID_00000018223496855546589980000009702022292100050849_);}
	
		.st179{clip-path:url(#SVGID_00000098218844705395602990000007511691191865042315_);fill:url(#SVGID_00000165923442196363230400000010385905303380048296_);}
	
		.st180{clip-path:url(#SVGID_00000043446315604169853600000012622526286588105610_);fill:url(#SVGID_00000005226619468332377470000003504702275797143438_);}
	
		.st181{clip-path:url(#SVGID_00000163064060166431721690000014923288190971008388_);fill:url(#SVGID_00000052821318546546906640000001762850825279775124_);}
	
		.st182{clip-path:url(#SVGID_00000045597744883233034000000012573500061802424986_);fill:url(#SVGID_00000040556697104727363240000016679800818761870742_);}
	
		.st183{clip-path:url(#SVGID_00000131334361789720143910000007858760634052582567_);fill:url(#SVGID_00000093879050967176635110000012488299798857964673_);}
	
		.st184{clip-path:url(#SVGID_00000183953006254562714110000017863168893393426869_);fill:url(#SVGID_00000089567408154428967570000005487553176111523993_);}
	
		.st185{clip-path:url(#SVGID_00000109031282179749850890000008590764292886608312_);fill:url(#SVGID_00000173882711007317268720000010924811740316941246_);}
	
		.st186{clip-path:url(#SVGID_00000016033077342961503720000014180125455041584263_);fill:url(#SVGID_00000052804569800266820390000011905505576628452737_);}
	
		.st187{clip-path:url(#SVGID_00000167371630202815931660000001939816649596661131_);fill:url(#SVGID_00000144329041655758329560000002793598060680719492_);}
	.st188{fill:#556273;}
	.st189{fill:#4DA656;}
	.st190{fill:#6EBB9C;}
	.st191{fill:#469694;}
	.st192{fill:#95C46E;}
	.st193{fill:#8FA3D0;}
	.st194{fill:#6163A6;}
	.st195{fill:#005C82;}
	.st196{fill:#1FAC80;}
	.st197{fill:#2C2E6C;}
	.st198{clip-path:url(#SVGID_00000089575994994555924100000005318715717122770107_);}
	.st199{clip-path:url(#SVGID_00000067920355010350212920000006728983785381183899_);}
	.st200{clip-path:url(#SVGID_00000151521170627558548890000014413531187532894897_);}
	.st201{clip-path:url(#SVGID_00000088844724199252835850000004566426009346053250_);}
	.st202{clip-path:url(#SVGID_00000007405978994563653990000011043711432835302021_);}
	.st203{clip-path:url(#SVGID_00000008830088840495459870000008190917313950488988_);}
	.st204{clip-path:url(#SVGID_00000013154656475729507320000010840520967037766038_);}
	.st205{clip-path:url(#SVGID_00000000206649137357906090000008061323365418428053_);}
	.st206{fill:#383838;}
	.st207{clip-path:url(#SVGID_00000139292936513031086590000000428663688034452393_);fill:#383838;}
	.st208{clip-path:url(#SVGID_00000069393757788831495570000015635884760407237017_);}
	.st209{fill:#231F20;}
	.st210{fill:#BABDBB;}
	.st211{fill:#6EB0DE;}
	.st212{fill:#77807C;}
	.st213{fill:#4D4E4E;}
	.st214{fill:#53AB73;}
	.st215{fill:#408FA6;}
	.st216{fill:#3D8AA8;}
	.st217{fill:#3C83AA;}
	.st218{fill:#3A81AB;}
	.st219{fill:#387FAC;}
	.st220{fill:#387EAE;}
	.st221{fill:#416689;}
	.st222{fill:#58B3AC;}
	.st223{fill:#A42F35;}
	.st224{fill:#4E5052;}
	.st225{fill:#8ABD57;}
	.st226{fill:#1E1E1E;}
	.st227{fill:#494949;}
	.st228{fill:url(#SVGID_00000147909451245145050560000009187510394055672462_);}
	.st229{fill:#1D1D1B;}
	.st230{fill:#49A057;}
	.st231{fill:#D74A57;}
	.st232{fill:#3A7CBB;}
	.st233{fill:#F2BA56;}
	.st234{fill:#480986;}
	.st235{fill:#EB4B62;}
	.st236{fill:url(#SVGID_00000050620596315942203530000007988330365735377284_);}
	.st237{fill:url(#SVGID_00000161625959704783197730000009747496597208253090_);}
	.st238{fill:url(#SVGID_00000063608361124624150680000002016479008011712396_);}
	.st239{fill:url(#SVGID_00000070834651304385560170000002722927332424247485_);}
	.st240{fill:url(#SVGID_00000044885151337363070650000010559400029951179923_);}
	.st241{fill:url(#SVGID_00000170238097059731664570000001675371815576786608_);}
	.st242{fill:url(#SVGID_00000022557291346505223030000006071690936629436068_);}
	.st243{fill:#2E2566;}
	.st244{fill:url(#SVGID_00000082364221913214189660000008131283464133846426_);}
	.st245{fill:url(#SVGID_00000106854916113807853150000005754270486325912253_);}
	.st246{fill:url(#SVGID_00000080188241394395365490000003329935229803566757_);}
	.st247{fill:url(#SVGID_00000119803190520413721840000013509202148734930581_);}
	.st248{opacity:0.7;fill:url(#SVGID_00000142147696463033966110000001364951612999439522_);enable-background:new    ;}
	.st249{fill:url(#SVGID_00000145744014200458828180000001578082221094405767_);}
	.st250{fill:url(#SVGID_00000130638355897251577550000011455154285552511880_);}
	.st251{opacity:0.3;fill:url(#SVGID_00000088812269727530901480000006080666208333323137_);enable-background:new    ;}
	.st252{fill:url(#SVGID_00000103964465951514287120000000366153902950110654_);}
	.st253{fill:url(#SVGID_00000158011848876300247060000012183233438074482359_);}
	.st254{fill:url(#SVGID_00000010295097172915554940000013552102276033878453_);}
	.st255{fill:#808080;}
	.st256{fill:url(#SVGID_00000150078930056737812930000018170597788567401109_);}
	.st257{fill:url(#SVGID_00000011733366653745571340000005465546804026053788_);}
	.st258{fill:url(#SVGID_00000010274130477064656800000012298496047944693151_);}
	.st259{fill:url(#SVGID_00000095324498307059813780000004867210247187705262_);}
	.st260{fill:url(#SVGID_00000026124723833182818490000002622610173263030965_);}
	.st261{fill:url(#SVGID_00000106128081589894654360000010224301638112915328_);}
	.st262{fill:url(#SVGID_00000065071147736373115420000003987854358648896150_);}
	.st263{fill:#101460;}
	.st264{fill:#480985;}
	.st265{fill:#EA4B62;}
	.st266{fill:#234899;}
	.st267{fill:#224E9C;}
	.st268{fill:#2355A1;}
	.st269{fill:#2860A9;}
	.st270{fill:#808184;}
	.st271{fill:#224F9D;}
	.st272{fill:#243974;}
	.st273{fill:#215183;}
	.st274{fill:#9F9067;}
	.st275{fill:#09653D;}
	.st276{opacity:0.77;}
	.st277{opacity:0.51;fill:#9F9067;}
	.st278{opacity:0.83;fill:#9F9067;}
	.st279{opacity:0.77;fill:#9F9067;}
	.st280{opacity:0.67;fill:#9F9067;}
	.st281{fill:url(#SVGID_00000075852562425336175110000013481552893213023413_);}
	.st282{fill:#686868;}
	.st283{clip-path:url(#SVGID_00000078752695296876152840000008664259382503928219_);}
	.st284{fill:#C43C4B;}
	.st285{fill:#2E4DBC;}
	.st286{fill:#445275;}
	.st287{fill:#A66B9D;}
	.st288{fill:#BE4933;}
	.st289{fill:#5D4D87;}
	.st290{fill:#D97060;}
	.st291{fill:#D1A742;}
	.st292{fill:#3B857E;}
	.st293{fill:#6CE7AE;}
	.st294{fill-rule:evenodd;clip-rule:evenodd;}
	.st295{fill:#BA271A;}
	.st296{fill:#3A8364;}
	.st297{fill:#8A7830;}
	.st298{fill:url(#Path_70_00000138538935393655792790000016673384884104890291_);}
	.st299{fill:url(#Path_71_00000076582881758300881730000013474977501784068482_);}
	.st300{fill:url(#Path_72_00000022561429044127530190000007827847624899222160_);}
	.st301{fill:url(#Path_73_00000015316860879496534280000018151754177562521734_);}
	.st302{fill:url(#Path_74_00000112631644702912299130000006352061561291294634_);}
	.st303{fill:url(#Path_75_00000026157170028870928090000011461425005569267111_);}
	.st304{fill:url(#Path_76_00000054959723606185989710000010953084930354366354_);}
	.st305{fill:url(#Path_77_00000008844129501919703750000000115217296668042130_);}
	.st306{fill:url(#Path_78_00000168824257135509829410000007137782486339632055_);}
	.st307{fill:url(#Path_79_00000073707575591848396990000001062031179105516169_);}
	.st308{fill:url(#Path_80_00000102520337035521011560000009789362052975600063_);}
	.st309{fill:url(#Path_81_00000063608226657553161950000011071847662859868826_);}
	.st310{fill:url(#Path_82_00000064318493200935059430000005566478490762952088_);}
	.st311{fill:url(#Path_83_00000002373818217303842730000008715951488210633141_);}
	.st312{fill:url(#Path_84_00000156588939855813764090000014156976522255748767_);}
	.st313{fill:url(#Path_85_00000131351468657007608010000016375889639454033323_);}
	.st314{fill:url(#Path_86_00000146480396939885416200000013707586439018437004_);}
	.st315{fill:url(#Path_87_00000107565309771095676950000001363254199748320170_);}
	.st316{fill:url(#Path_88_00000179620745785435722990000005312296457040421515_);}
	.st317{fill:url(#Path_89_00000027601663543999743880000005627249277465699996_);}
	.st318{fill:url(#Path_90_00000105386399193126130400000012372982494996621226_);}
	.st319{fill:url(#Path_91_00000106105628944118098870000015563287671815131778_);}
	.st320{fill:url(#Path_92_00000099657502343030713050000010637245186109439162_);}
	.st321{fill:url(#Path_93_00000121261551366876830950000016998387401849535155_);}
	.st322{fill:url(#Path_94_00000039827278108817373580000016091910756441282746_);}
	.st323{fill:url(#Path_95_00000171715542568492532240000018310404821544594089_);}
	.st324{fill:url(#Path_96_00000072968022091281867060000004374096309467480508_);}
	.st325{fill:url(#Path_97_00000049931152640944922510000001987758364364602269_);}
	.st326{fill:url(#Path_98_00000063611845359547784570000003599847371783835818_);}
	.st327{fill:url(#Path_99_00000129169283764717260010000017226984128459717541_);}
	.st328{fill:url(#Path_100_00000065760494291853459160000017177013482148608141_);}
	.st329{fill:#808082;}
	.st330{fill:#53A46F;}
	.st331{fill:#C6834D;}
	.st332{fill:#20507E;}
	.st333{fill:#E4963F;}
	.st334{fill:#1C474C;}
	.st335{fill:#D3B286;}
	.st336{fill:#131E87;}
	.st337{fill:#357AB4;}
	.st338{fill:#0F1F88;}
	.st339{fill:#2F2C6B;}
	.st340{fill:#5DB2BC;}
	.st341{fill:#26245D;}
	.st342{fill:#DA9061;}
	.st343{fill:#232750;}
	.st344{fill:url(#Path_429_00000183221291465788763360000017997590857186741660_);}
	.st345{filter:url(#Adobe_OpacityMaskFilter);}
	.st346{fill-rule:evenodd;clip-rule:evenodd;fill:#FFFFFF;}
	.st347{mask:url(#mask-2_00000181778887308529790200000000831507762023491979_);fill-rule:evenodd;clip-rule:evenodd;fill:#245870;}
	.st348{filter:url(#Adobe_OpacityMaskFilter_00000160886350890958271050000011601306515634451126_);}
	.st349{mask:url(#mask-2_00000000207326656208497480000003303022884949798805_);fill-rule:evenodd;clip-rule:evenodd;fill:#245870;}
	.st350{filter:url(#Adobe_OpacityMaskFilter_00000011029306300453172530000003840943107920529336_);}
	.st351{mask:url(#mask-2_00000065785558703536194710000007734681589678738564_);fill-rule:evenodd;clip-rule:evenodd;fill:#245870;}
	.st352{filter:url(#Adobe_OpacityMaskFilter_00000080886819679194777010000001564147474941291908_);}
	.st353{mask:url(#mask-2_00000088815109359673616440000012657192332974893215_);fill-rule:evenodd;clip-rule:evenodd;fill:#245870;}
	.st354{filter:url(#Adobe_OpacityMaskFilter_00000065773769044430446060000002432363255899313835_);}
	.st355{mask:url(#mask-2_00000041975301509416525360000006506499995822959531_);fill-rule:evenodd;clip-rule:evenodd;fill:#245870;}
	.st356{filter:url(#Adobe_OpacityMaskFilter_00000075148024266786269940000006032396295758033308_);}
	.st357{mask:url(#mask-2_00000158750128845762389130000005294071396432734107_);fill-rule:evenodd;clip-rule:evenodd;fill:#245870;}
	.st358{fill-rule:evenodd;clip-rule:evenodd;fill:#245870;}
	.st359{fill-rule:evenodd;clip-rule:evenodd;fill:url(#path-4_00000128465556389353300480000004371717979551902352_);}
</style>

<g
   id="Layer_2"
   transform="matrix(0.93748535,0,0,0.93748535,-279.38938,-168.74736)">
	<g
   id="g17">
		<path
   class="st57"
   d="m 650.97,180 c 1.39,0.58 2.92,0.44 4.36,0.69 16.18,2.84 29.52,16.35 32.16,32.61 0.42,2.64 0.64,5.28 0.64,7.95 0,63.41 0,126.82 0,190.24 0,1.56 -0.06,3.11 -0.53,4.59 -1.78,5.45 -7.64,8.28 -13.04,6.31 -1.17,-0.42 -2.28,-0.97 -3.39,-1.47 -20.82,-9.45 -41.64,-18.9 -62.49,-28.33 -2.7,-1.22 -5.14,-2.72 -7.23,-4.84 -3.59,-3.67 -5.45,-8.06 -5.62,-13.18 -0.03,-0.75 0,-1.5 0,-2.25 0,-26.6 0,-53.21 0,-79.84 -0.03,-9.28 -6.14,-17.18 -15.12,-19.54 -1.86,-0.5 -3.75,-0.64 -5.7,-0.64 -23.96,0.03 -47.9,0.03 -71.84,0.03 -26.02,0 -52.01,0 -78.01,0 -7.09,0 -12.7,2.89 -16.82,8.65 -2.34,3.25 -3.53,6.95 -3.56,10.98 0,19.46 -0.33,38.95 0.11,58.44 0.36,16.43 8.59,28.36 23.35,35.44 12.12,5.81 24.46,11.15 36.7,16.71 72.03,32.66 144.03,65.33 216.03,98 0.7,0.31 1.36,0.61 2.03,0.97 4.31,2.47 6.17,7.59 4.45,12.2 -1.75,4.7 -6.59,7.48 -11.48,6.31 -7.73,-1.83 -15.4,-3.84 -23.1,-5.78 -30.19,-7.65 -60.41,-15.32 -90.63,-22.96 -34.47,-8.76 -68.94,-17.49 -103.42,-26.22 -34.64,-8.79 -69.31,-17.57 -103.94,-26.33 -4.34,-1.11 -8.67,-2.17 -12.98,-3.34 -15.48,-4.17 -27.13,-17.68 -29.08,-33.55 -0.25,-1.97 -0.33,-3.95 -0.33,-5.92 0,-58.32 -0.06,-116.65 0.03,-174.97 0.03,-16.87 7.84,-29.22 22.82,-36.97 4.11,-2.11 8.53,-3.31 13.18,-3.67 0.42,-0.03 0.86,-0.03 1.22,-0.31"
   id="path2" />
		<path
   class="st57"
   d="m 298.02,627.89 c 0.61,-1.5 0.58,-3.14 0.72,-4.73 0.44,-4.95 1.31,-9.81 3,-14.51 0.95,-2.64 2.14,-5.14 3.86,-7.4 2.64,-3.48 7.34,-4.5 10.95,-2.42 3.81,2.2 5.48,6.95 3.84,10.93 -0.14,0.36 -0.28,0.69 -0.47,1 -3.42,5.23 -4.25,11.04 -3.84,17.12 0.17,2.28 0.31,4.56 0.92,6.81 1.81,6.67 6.28,10.62 12.76,12.51 4.11,1.2 8.31,1.45 12.54,1.36 4.53,-0.08 9.04,-0.44 13.43,-1.7 2.22,-0.64 4.34,-1.47 6.23,-2.86 4.53,-3.28 4.81,-8.65 0.64,-12.4 -1.33,-1.2 -2.86,-2.14 -4.48,-2.97 -3.11,-1.64 -6.28,-3.22 -9.42,-4.84 -3.84,-1.97 -5.62,-5.42 -4.92,-9.51 0.53,-3.2 3.11,-5.56 6.34,-5.81 1.58,-0.14 3.11,0.03 4.56,0.67 1.31,0.56 2.61,1.11 3.92,1.72 5.37,2.59 11.06,3.86 16.99,4.39 4.39,0.39 8.81,0.5 13.21,0.39 6.5,-0.19 11.9,-4.73 13.32,-11.01 0.31,-1.36 0.28,-2.72 0.28,-4.09 0,-19.6 0,-39.2 0,-58.83 0,-1.31 0.08,-2.59 0.5,-3.84 1.45,-4.03 5.53,-6.39 9.95,-5.75 4.17,0.61 7.28,4 7.56,8.2 0.03,0.56 0,1.11 0,1.67 0,19.49 0,38.98 0,58.46 0,1.36 -0.03,2.72 0.28,4.09 1.33,6.12 6.64,10.7 12.9,11.04 2.92,0.17 5.84,0.11 8.76,0.08 8.09,-0.11 14.18,-6.26 14.23,-14.34 0.03,-5.84 0.03,-11.68 0,-17.51 -0.03,-1.84 0.36,-3.56 1.36,-5.14 2.03,-3.22 6,-4.84 9.7,-3.92 3.75,0.97 6.78,4.34 6.84,8.15 0.11,7.12 0.28,14.29 -0.08,21.38 -0.47,8.67 -3.86,16.12 -10.79,21.66 -4.67,3.75 -10.09,5.78 -16.01,6.39 -6.26,0.67 -12.51,0.64 -18.77,-0.03 -6.84,-0.72 -12.59,-3.53 -16.74,-9.23 -0.19,-0.25 -0.39,-0.47 -0.56,-0.67 -0.5,0.06 -0.64,0.44 -0.86,0.72 -4.11,5.7 -9.84,8.45 -16.71,9.26 -4.03,0.45 -8.06,0.25 -12.09,0.33 -0.56,0 -1.11,-0.11 -1.64,0.11 -0.14,0.33 0,0.61 0.11,0.89 2.78,8.45 0.53,15.65 -5.62,21.74 -4.34,4.31 -9.7,6.87 -15.48,8.53 -8.01,2.33 -16.21,3 -24.49,2.33 -6.12,-0.47 -12.04,-1.78 -17.54,-4.53 -11.12,-5.59 -17.04,-14.73 -18.49,-26.99 -0.14,-1.2 -0.08,-2.45 -0.69,-3.56"
   id="path3" />
		<g
   id="g4">
			<path
   class="st57"
   d="m 604.35,615.67 c 2.39,0 4.31,0.03 6.23,0 1.33,0 1.36,-0.03 1.36,-1.31 0.03,-3.56 -0.33,-7.06 -1.28,-10.51 -0.47,-1.72 -1.17,-3.39 -2.17,-4.89 -1.64,-2.45 -3.89,-3.95 -6.78,-4.53 -1.95,-0.39 -3.95,-0.36 -5.92,0 -4.23,0.75 -7.23,3.56 -8.01,7.76 -1.33,7.12 1.31,11.84 8.87,13.12 2.72,0.47 5.44,0.3 7.7,0.36 m 82.01,-8.84 c 0.06,-2.5 -0.25,-4.81 -1.14,-7.03 -1.08,-2.61 -2.92,-4.45 -5.7,-5.17 -4.64,-1.17 -8.7,-0.19 -11.95,3.5 -1.7,1.95 -2.84,4.2 -3.78,6.56 -1.17,2.81 -2.28,5.62 -3.39,8.45 -0.5,1.28 -0.5,1.31 0.61,2.08 4.59,3.25 9.73,4.56 15.29,4.03 4.31,-0.42 7.65,-2.42 9.2,-6.7 0.66,-1.89 0.94,-3.83 0.86,-5.72 m 15.62,2.44 c -0.44,0.44 -0.31,1.06 -0.33,1.58 -0.2,4.23 -1.36,8.2 -3.28,11.93 -4,7.81 -10.65,12.04 -19.1,13.62 -5.89,1.08 -11.73,0.86 -17.4,-1.31 -4.25,-1.61 -7.92,-4.06 -10.81,-7.62 -0.61,-0.75 -1.03,-0.97 -1.92,-0.36 -5.5,3.73 -11.7,5.23 -18.27,5.56 -0.42,0.03 -0.86,0.06 -1.31,0.03 -0.89,-0.08 -1.28,0.22 -1.39,1.2 -0.28,2.53 -0.75,5.03 -1.45,7.48 -2.64,9.51 -7.87,17.04 -16.79,21.71 -4.59,2.36 -9.48,3.64 -14.57,4.17 -5.84,0.61 -11.65,0.36 -17.43,-0.58 -3.86,-0.64 -6.87,-5.03 -6.37,-9.01 0.45,-3.5 4.14,-7.37 8.67,-6.64 4.14,0.64 8.26,0.75 12.43,0.36 1.72,-0.17 3.45,-0.47 5.12,-0.95 6.78,-1.89 10.59,-6.56 12.15,-13.23 0.33,-1.39 0.64,-2.78 0.58,-4.23 -1.33,-0.61 -2.78,-0.25 -4.17,-0.25 -4.98,0 -9.92,-0.03 -14.82,-1.11 -1.5,-0.31 -3,-0.72 -4.45,-1.28 -7.28,-2.67 -11.82,-7.81 -13.4,-15.37 -1.58,-7.45 -1.28,-14.85 1.36,-21.99 3.22,-8.73 9.29,-14.43 18.54,-16.24 10.43,-2.06 20.77,1.14 27.1,11.68 3.22,5.34 4.95,11.2 6.06,17.29 0.53,2.86 0.92,5.75 1.11,8.65 0.06,0.92 0.28,1.36 1.28,1.33 2.11,-0.06 4.23,-0.06 6.31,-0.53 2.89,-0.61 5.25,-2.09 7.03,-4.5 1.58,-2.17 2.73,-4.56 3.7,-7.06 1.58,-4.17 3.31,-8.28 5.53,-12.18 1.33,-2.25 2.81,-4.39 4.56,-6.34 6.17,-6.87 14.01,-9.34 22.99,-8.4 12.29,1.31 19.57,10.37 21.96,20.96 0.39,1.64 0.17,3.34 0.75,4.92"
   id="path4" />
		</g>
		<path
   class="st57"
   d="m 491.06,574.66 c 0,-10.68 0,-21.35 0,-32.03 0,-0.86 0.03,-1.72 0.08,-2.59 0.39,-4.64 4.42,-8.2 9.12,-8.06 4.75,0.14 8.59,3.78 8.81,8.4 0.03,0.61 0,1.25 0,1.86 0,20.71 0,41.45 0,62.16 0,1.45 0.03,2.86 0.39,4.25 0.7,2.78 2.34,4.75 5,5.84 1.61,0.67 3.31,1.03 5.06,1.08 2.42,0.08 4.84,0.14 7.26,0.08 7.84,-0.14 13.98,-6.28 14.07,-14.15 0.08,-5.7 0.03,-11.43 0.03,-17.12 0,-1.25 0.11,-2.47 0.5,-3.67 1.45,-4.17 5.67,-6.7 10.17,-6.09 3.95,0.56 7.26,4.14 7.28,8.45 0.08,7.31 0.39,14.65 -0.17,21.93 -1.06,13.82 -9.95,24.1 -23.6,26.77 -8.48,1.67 -17.04,1.47 -25.49,-0.56 -2.72,-0.67 -5.28,-1.78 -7.67,-3.28 -5.92,-3.75 -9.09,-9.31 -10.29,-16.1 -0.5,-2.7 -0.53,-5.42 -0.56,-8.15 0.01,-9.67 0.01,-19.34 0.01,-29.02"
   id="path5" />
		<path
   class="st57"
   d="m 337.67,684.54 c -0.03,5.56 -4.92,10.29 -10.62,10.29 -5.7,0.03 -10.43,-4.75 -10.34,-10.48 0.06,-5.62 4.86,-10.31 10.43,-10.2 5.75,0.1 10.56,4.83 10.53,10.39"
   id="path6" />
		<path
   class="st57"
   d="m 445.93,650.86 c 0.06,5.67 -4.53,10.34 -10.17,10.43 -5.73,0.08 -10.79,-4.75 -10.79,-10.37 0.03,-5.51 4.92,-10.29 10.62,-10.31 5.62,-0.07 10.29,4.58 10.34,10.25"
   id="path7" />
		<path
   class="st57"
   d="m 342.3,684.48 c 0,-5.75 4.39,-10.34 9.95,-10.34 5.7,-0.03 10.59,4.7 10.65,10.26 0.03,5.67 -4.86,10.45 -10.65,10.43 -5.56,-0.01 -9.95,-4.59 -9.95,-10.35"
   id="path8" />
		<path
   class="st57"
   d="m 541.91,651.67 c -0.03,5.81 -4.39,10.29 -10.04,10.23 -5.7,-0.06 -10.23,-4.64 -10.2,-10.37 0.03,-5.67 4.64,-10.26 10.34,-10.23 5.59,0 9.93,4.53 9.9,10.37"
   id="path9" />
		<path
   class="st57"
   d="m 450.93,650.74 c 0.11,-5.62 4.81,-10.29 10.2,-10.15 5.7,0.17 10.17,4.95 10.04,10.73 -0.14,5.5 -4.95,10.12 -10.43,9.95 -5.47,-0.13 -9.92,-4.89 -9.81,-10.53"
   id="path10" />
		<g
   id="g11">
			<path
   class="st57"
   d="m 644.27,820 c -0.61,-0.47 -1.39,-0.5 -2.06,-0.72 -3.7,-1.28 -6,-4.86 -5.62,-8.7 0.42,-3.95 3.22,-6.89 7.14,-7.42 0.86,-0.11 1.72,-0.14 2.59,-0.2 3.17,-0.19 5.67,-1.61 7.56,-4.14 0.92,-1.2 1.7,-2.45 2.36,-3.78 1.22,-2.45 2.39,-4.89 3.64,-7.31 0.44,-0.86 0.47,-1.56 0.06,-2.45 -7.23,-15.85 -13.93,-31.94 -21.04,-47.82 -0.67,-1.56 -1.17,-3.11 -1.33,-4.81 -0.39,-4.73 2.95,-8.09 6.73,-9.04 4,-1.03 9.17,0.78 11.01,5.62 4.11,10.76 8.53,21.41 12.84,32.08 0.28,0.67 0.42,1.39 0.95,1.95 0.61,-0.42 0.67,-1.06 0.89,-1.61 4.2,-10.73 8.42,-21.46 12.62,-32.19 1.58,-4 6.53,-6.76 10.7,-5.95 3.95,0.75 6.67,3.95 6.75,7.98 0.06,1.61 -0.17,3.22 -0.81,4.73 -7.84,18.43 -15.37,36.97 -23.35,55.32 -2.03,4.59 -4.34,9.06 -7.01,13.32 -1.25,1.92 -2.61,3.75 -4,5.59 -4.31,5.59 -10.04,8.51 -16.99,9.2 -0.58,0.08 -1.25,-0.08 -1.78,0.36"
   id="path11" />
		</g>
		<path
   class="st57"
   d="m 346.28,742.29 c 0.64,-0.33 0.92,-1 1.31,-1.56 8.51,-11.98 17.01,-23.96 25.52,-35.95 0.75,-1.08 1.56,-2.11 2.36,-3.11 2.53,-3.14 6.28,-3.5 9.45,-2.36 3.75,1.39 6.2,4.84 6.2,8.87 0.03,24.82 -0.03,49.62 0.06,74.45 0,4.92 -4.25,9.59 -9.45,9.51 -5.2,-0.08 -9.23,-4.14 -9.2,-9.48 0.08,-14.34 0.19,-28.66 0.31,-43.01 0,-0.61 0,-1.22 0,-1.84 -0.67,-0.14 -0.78,0.42 -0.97,0.72 -5.64,7.95 -11.26,15.9 -16.88,23.85 -1.11,1.58 -2.42,3 -4.09,4.03 -3.89,2.39 -8.34,1.86 -11.56,-1.39 -0.75,-0.75 -1.33,-1.64 -1.95,-2.5 -5.37,-7.76 -10.73,-15.51 -16.1,-23.24 -0.39,-0.56 -0.64,-1.2 -1.39,-1.64 -0.31,0.72 -0.17,1.39 -0.17,2.06 0,14.07 -0.03,28.16 0.03,42.26 0,2.59 -0.61,4.89 -2.31,6.87 -2.59,2.97 -6.53,4.06 -10.15,2.81 -3.53,-1.22 -5.98,-4.56 -6.23,-8.51 -0.03,-0.42 0,-0.86 0,-1.28 0,-24.27 0,-48.54 -0.03,-72.78 0,-2.78 0.64,-5.31 2.56,-7.37 3.36,-3.56 8.65,-3.95 12.45,-0.89 0.97,0.81 1.75,1.75 2.47,2.78 8.87,12.43 17.71,24.85 26.58,37.28 0.34,0.5 0.62,1.08 1.18,1.42"
   id="path12" />
		<path
   class="st57"
   d="m 505.08,759.33 c 0.03,1.64 -0.08,4 0.28,6.34 0.97,6.53 4.86,10.59 11.4,11.34 6.84,0.78 13.09,-1.89 15.57,-9.67 0.69,-2.28 1.06,-4.59 1.22,-6.95 0.28,-4.86 -0.06,-9.67 -2,-14.23 -2.59,-6.03 -8.09,-8.98 -15.1,-7.42 -5.81,1.31 -8.98,5.42 -10.65,10.84 -0.92,2.97 -0.75,6.02 -0.72,9.75 m 0.16,-28.52 c 0.28,-0.19 0.47,-0.25 0.58,-0.39 10.37,-10.93 33.03,-10.04 41.9,7.64 1.95,3.86 3.14,7.95 3.7,12.23 0.89,6.62 0.75,13.23 -0.97,19.74 -2.11,7.95 -6.34,14.43 -13.68,18.43 -7.2,3.95 -14.82,4.67 -22.71,2.53 -3.34,-0.89 -4.95,-1.95 -8.78,-5.12 -0.5,0.14 -0.5,0.64 -0.67,0.97 -1.89,3.92 -6.14,6 -10.37,5.09 -4.28,-0.92 -7.12,-4.45 -7.12,-8.98 0,-26.44 0,-52.88 0,-79.31 0,-0.36 0,-0.75 0.03,-1.11 0.5,-3.84 2.47,-6.62 6.14,-7.95 5.37,-1.95 11.31,2.14 11.73,7.98 0.06,0.61 0.03,1.25 0.03,1.86 0,8.12 0,16.26 0,24.38 0,0.62 -0.11,1.23 0.19,2.01"
   id="path13" />
		<path
   class="st57"
   d="m 454.21,757.61 c 0,-0.31 0,-0.61 0,-0.92 -0.11,-3.5 -0.39,-6.95 -1.67,-10.23 -1.2,-3.06 -3.11,-5.5 -6.2,-6.84 -3.14,-1.42 -6.48,-1.61 -9.81,-0.95 -4.42,0.92 -7.28,3.78 -9.2,7.73 -1.33,2.7 -1.95,5.62 -2.17,8.59 -0.39,4.89 -0.03,9.67 1.97,14.21 1.31,3 3.36,5.37 6.37,6.76 7.95,3.64 16.82,-0.28 19.43,-8.62 1.01,-3.17 1.23,-6.42 1.28,-9.73 m -14.81,34.5 c -5.11,0.06 -9.76,-0.61 -14.21,-2.36 -7.98,-3.14 -13.34,-8.92 -16.12,-16.96 -3.28,-9.65 -3.34,-19.4 0.06,-29.02 3.84,-10.9 11.68,-17.43 22.99,-19.71 6.28,-1.25 12.59,-1.08 18.76,0.78 9.56,2.86 15.93,9.15 19.1,18.54 3.31,9.84 3.17,19.79 -0.53,29.52 -3.86,10.2 -11.45,16.21 -22.1,18.43 -2.73,0.56 -5.51,0.83 -7.95,0.78"
   id="path14" />
		<path
   class="st57"
   d="m 607.72,743.2 c 0,-13.21 0.06,-26.41 -0.03,-39.61 -0.03,-3.2 1.95,-7.42 6.34,-8.98 5.67,-2 11.62,2.17 11.95,8.34 0.03,0.5 0,1 0,1.5 0,25.91 0,51.82 0.03,77.76 0,1.44 -0.11,2.84 -0.64,4.2 -1.58,4.03 -5.75,6.37 -10.04,5.59 -4.39,-0.78 -7.59,-4.42 -7.62,-8.79 -0.01,-13.35 0.01,-26.66 0.01,-40.01"
   id="path15" />
		<path
   class="st57"
   d="m 568.13,757.64 v -24.02 c 0,-1.31 0.03,-2.59 0.39,-3.86 1.14,-3.95 4.84,-6.73 9.17,-6.39 4.34,0.31 7.67,3.78 8.06,8.12 0.08,0.75 0.06,1.5 0.06,2.25 0,15.98 0,32 0,48.01 0,1.31 0,2.59 -0.36,3.86 -1.17,4.17 -4.92,6.81 -9.26,6.48 -4.09,-0.33 -7.48,-3.67 -7.95,-7.84 -0.08,-0.86 -0.11,-1.72 -0.11,-2.59 0,-8.01 0,-16.02 0,-24.02"
   id="path16" />
		<path
   class="st57"
   d="m 576.96,694.46 c 5.78,0.06 10.51,4.78 10.45,10.4 -0.06,5.67 -4.98,10.56 -10.62,10.54 -5.45,-0.03 -10.06,-5.06 -9.95,-10.9 0.08,-5.54 4.67,-10.1 10.12,-10.04"
   id="path17" />
	</g>
</g>
</svg>
